<mxfile host="Electron" agent="Mozilla/5.0 (Windows NT 10.0; Win64; x64) AppleWebKit/537.36 (KHTML, like Gecko) draw.io/24.7.17 Chrome/128.0.6613.36 Electron/32.0.1 Safari/537.36" version="24.7.17">
  <diagram name="erd" id="dNqwXRDJ3yBruR6XhdzT">
    <mxGraphModel dx="794" dy="519" grid="1" gridSize="10" guides="1" tooltips="1" connect="1" arrows="1" fold="1" page="1" pageScale="1" pageWidth="1169" pageHeight="827" math="0" shadow="0">
      <root>
        <mxCell id="0" />
        <mxCell id="1" parent="0" />
        <mxCell id="vocePrslf9cfjjCVAfBs-1" value="&lt;b&gt;House&lt;/b&gt;" style="swimlane;childLayout=stackLayout;horizontal=1;startSize=30;horizontalStack=0;rounded=1;fontSize=14;fontStyle=0;strokeWidth=2;resizeParent=0;resizeLast=1;shadow=0;dashed=0;align=center;arcSize=1;whiteSpace=wrap;html=1;fillColor=none;" parent="1" vertex="1">
          <mxGeometry x="320" y="360" width="120" height="150" as="geometry">
            <mxRectangle x="170" y="370" width="80" height="50" as="alternateBounds" />
          </mxGeometry>
        </mxCell>
        <mxCell id="vocePrslf9cfjjCVAfBs-2" value="&lt;font style=&quot;font-size: 14px;&quot;&gt;&lt;u style=&quot;&quot;&gt;id&lt;/u&gt;&lt;/font&gt;&lt;div&gt;&lt;font style=&quot;font-size: 14px;&quot;&gt;name&lt;br&gt;guidanceTeacher&lt;br&gt;embem&lt;/font&gt;&lt;/div&gt;&lt;div&gt;&lt;font style=&quot;font-size: 14px;&quot;&gt;colour&lt;br&gt;&lt;/font&gt;&lt;/div&gt;" style="align=left;strokeColor=none;fillColor=none;spacingLeft=4;fontSize=12;verticalAlign=top;resizable=0;rotatable=0;part=1;html=1;" parent="vocePrslf9cfjjCVAfBs-1" vertex="1">
          <mxGeometry y="30" width="120" height="120" as="geometry" />
        </mxCell>
        <mxCell id="vocePrslf9cfjjCVAfBs-3" style="edgeStyle=orthogonalEdgeStyle;rounded=0;orthogonalLoop=1;jettySize=auto;html=1;exitX=0.5;exitY=1;exitDx=0;exitDy=0;" parent="vocePrslf9cfjjCVAfBs-1" source="vocePrslf9cfjjCVAfBs-2" target="vocePrslf9cfjjCVAfBs-2" edge="1">
          <mxGeometry relative="1" as="geometry" />
        </mxCell>
        <mxCell id="vocePrslf9cfjjCVAfBs-4" value="&lt;b&gt;Pupil&lt;/b&gt;" style="swimlane;childLayout=stackLayout;horizontal=1;startSize=30;horizontalStack=0;rounded=1;fontSize=14;fontStyle=0;strokeWidth=2;resizeParent=0;resizeLast=1;shadow=0;dashed=0;align=center;arcSize=1;whiteSpace=wrap;html=1;fillColor=none;" parent="1" vertex="1">
          <mxGeometry x="600" y="360" width="120" height="150" as="geometry">
            <mxRectangle x="170" y="370" width="80" height="50" as="alternateBounds" />
          </mxGeometry>
        </mxCell>
        <mxCell id="vocePrslf9cfjjCVAfBs-5" value="&lt;font style=&quot;font-size: 14px;&quot;&gt;&lt;u style=&quot;&quot;&gt;id&lt;br&gt;&lt;/u&gt;lastName&lt;br&gt;firstName&lt;br&gt;houseID*&lt;br&gt;year&lt;br&gt;age&lt;/font&gt;" style="align=left;strokeColor=none;fillColor=none;spacingLeft=4;fontSize=12;verticalAlign=top;resizable=0;rotatable=0;part=1;html=1;" parent="vocePrslf9cfjjCVAfBs-4" vertex="1">
          <mxGeometry y="30" width="120" height="120" as="geometry" />
        </mxCell>
        <mxCell id="vocePrslf9cfjjCVAfBs-6" style="rounded=0;orthogonalLoop=1;jettySize=auto;html=1;exitX=1;exitY=0.5;exitDx=0;exitDy=0;entryX=0;entryY=0.5;entryDx=0;entryDy=0;endArrow=ERmany;endFill=0;startSize=6;endSize=20;" parent="1" source="vocePrslf9cfjjCVAfBs-2" target="vocePrslf9cfjjCVAfBs-5" edge="1">
          <mxGeometry relative="1" as="geometry" />
        </mxCell>
      </root>
    </mxGraphModel>
  </diagram>
</mxfile>
